<?xml version="1.0" standalone="no"?>
<!DOCTYPE svg PUBLIC "-//W3C//DTD SVG 1.1//EN" "http://www.w3.org/Graphics/SVG/1.1/DTD/svg11.dtd" >
<svg xmlns="http://www.w3.org/2000/svg">
<metadata>
This is a custom SVG font generated by IcoMoon.
<iconset grid="20"></iconset>
</metadata>
<defs>
<font id="Lend-Ico" horiz-adv-x="640" >
<font-face units-per-em="640" ascent="608" descent="-32" />
<missing-glyph horiz-adv-x="640" />
<glyph class="hidden" unicode="&#xf000;" d="M0,608L 640 -32L0 -32 z" horiz-adv-x="0" />
<glyph unicode="&#x2228;" d="M 467.2,415.968L 172.8,416L 320,160 z" data-tags="arrow-down, triangle, down, bottom" />
<glyph unicode="&#x2227;" d="M 172.8,160L 467.2,160L 319.968,416 z" data-tags="arrow-up, triangle, up, top" />
<glyph unicode="&#x2194;" d="M 320,608L 172.8,374.4l 294.368,0L 320,608z M 320.032-32l 147.168,233.6L 172.8,201.632L 320.032-32z" data-tags="menu, arrows, up-down, dropdown" />
<glyph unicode="&#x2191;" d="M 557.376,147.232c 8.672-8.576, 22.688-8.576, 31.328,0c 8.672,8.576, 8.672,22.432,0,31.008l-253.056,250.56
	c-8.64,8.576-22.656,8.576-31.296,0l-253.056-250.56c-8.64-8.576-8.672-22.432,0-31.008s 22.656-8.576, 31.328,0l 237.376,228.512L 557.376,147.232z" data-tags="arrow-up, up, top" />
<glyph unicode="&#x2193;" d="M 82.624,428.768c-8.672,8.576-22.688,8.576-31.328,0c-8.64-8.544-8.64-22.432,0-31.008l 253.056-250.56c 8.672-8.576, 22.656-8.576, 31.328,0
	l 253.056,250.56c 8.64,8.576, 8.672,22.432,0,31.008S 566.016,437.344, 557.408,428.8L 320,200.288L 82.624,428.768z" data-tags="arrow-down, down, bottom" />
<glyph unicode="&#x21d3;" d="M 429.376,364.768c 8.672,8.576, 22.688,8.576, 31.328,0c 8.672-8.576, 8.672-22.432,0-31.008l-125.024-122.56
	c-8.672-8.576-22.688-8.576-31.328,0l-125.056,122.56c-8.64,8.576-8.64,22.432,0,31.008c 8.672,8.576, 22.656,8.576, 31.328,0L 320,264.288
	L 429.376,364.768z" data-tags="arrow-down, down, bottom" />
<glyph unicode="&#x21d1;" d="M 210.592,211.232c-8.672-8.576-22.656-8.576-31.328,0c-8.64,8.576-8.672,22.432,0,31.040L 304.32,364.768
	c 8.672,8.576, 22.688,8.576, 31.328,0l 125.056-122.528c 8.672-8.608, 8.672-22.464,0-31.040s-22.656-8.576-31.328,0L 319.968,311.712L 210.592,211.232z" data-tags="arrow-up, up, top" />
<glyph unicode="&#xbb;" d="M 243.232,178.624c-8.576-8.672-8.576-22.688,0-31.328c 8.544-8.672, 22.432-8.672, 31.008,0l 122.56,125.024
	c 8.576,8.672, 8.576,22.688,0,31.328l-122.56,125.056c-8.576,8.672-22.432,8.672-31.008,0S 234.656,406.048, 243.2,397.408L 343.712,288L 243.232,178.624z" data-tags="arrow-right, right, next" />
<glyph unicode="&#xab;" d="M 396.768,178.624c 8.576-8.672, 8.576-22.688,0-31.328c-8.576-8.672-22.432-8.672-31.008,0l-122.56,125.024
	c-8.576,8.672-8.576,22.688,0,31.328l 122.56,125.056c 8.576,8.672, 22.432,8.672, 31.008,0s 8.576-22.656,0-31.328L 296.288,288L 396.768,178.624z" data-tags="arrow-left, left, previous" />
<glyph unicode="&#x3e;" d="M 179.19,50.624c -8.576-8.672, -8.576-22.656,0-31.328s 22.432-8.672 31.008,0l 250.56,253.024c 8.576,8.672 8.576,22.688,0,31.328
	l -250.56,253.056c -8.576,8.672, -22.432,8.672, -31.008,0s -8.576-22.656,0-31.328L 407.67,288L 179.19,50.624z" />
<glyph unicode="&#x3c;" d="M 460.768,50.624c 8.576-8.672, 8.576-22.656,0-31.328s-22.432-8.672-31.008,0l-250.56,253.024c-8.576,8.672-8.576,22.688,0,31.328
	l 250.56,253.056c 8.576,8.672, 22.432,8.672, 31.008,0s 8.576-22.656,0-31.328L 232.288,288L 460.768,50.624z" data-tags="arrow-left, previous, left" />
<glyph unicode="&#x2665;" d="M 494.65,392.83c-40.69,37.33-106.63,37.33-147.32,0L 319.7,367.48l-27.63,25.35c-40.67,37.33-106.62,37.33-147.29,0
			c-45.77-42.010-45.77-110.1,0-152.080L 319.7,80.19l 174.95,160.56C 540.38,282.74, 540.38,350.82, 494.65,392.83z" data-tags="WeddingExpenses" />
<glyph unicode="&#x25ca;" d="M 319.7,452.71c-192.8,0-293.88-142.050-293.88-164.57S 126.9,123.57, 319.7,123.57c 192.78,0, 293.87,142.050, 293.87,164.57
			S 512.48,452.71, 319.7,452.71z M 319.7,161.54c-72.14,0-130.62,56.67-130.62,126.59s 58.48,126.59, 130.62,126.59
			c 72.13,0, 130.61-56.67, 130.61-126.59S 391.84,161.54, 319.7,161.54z M 319.53,288.21c0,0, 0.31,63.22, 0.18,63.22
			c-36.080,0-65.32-28.34-65.32-63.3s 29.24-63.3, 65.32-63.3c 36.060,0, 65.3,28.34, 65.3,63.3C 385,288.21, 319.53,288.21, 319.53,288.21z" data-tags="View" />
<glyph unicode="&#x33;" d="M 376.090,309.88L 41.69,309.88 c-22.99,0-41.78-18.8-41.78-41.81L-0.090,142.7 c0-23, 18.79-41.81, 41.78-41.81l 334.4,0 
				c 22.99,0, 41.8,18.81, 41.8,41.81L 417.89,268.080 C 417.89,291.090, 399.080,309.88, 376.090,309.88z M 376.090,142.7L 41.69,142.7 L 41.69,268.080 l 334.4,0 L 376.090,142.7 z
				 M 355.2,246.77l-83.6,0 l0-82.74 l 83.6,0 L 355.2,246.77 z M 146.21,246.77L 62.59,246.77 l0-82.74 l 83.61,0 L 146.2,246.77 z M 250.7,246.77L 167.1,246.77 l0-82.74 l 83.59,0 L 250.69,246.77 z" data-tags="Verification3" />
<glyph unicode="&#x32;" d="M 376.090,309.88L 41.69,309.88 c-22.99,0-41.78-18.8-41.78-41.81L-0.090,142.7 c0-23, 18.79-41.81, 41.78-41.81l 334.4,0 
				c 22.99,0, 41.8,18.81, 41.8,41.81L 417.89,268.080 C 417.89,291.090, 399.080,309.88, 376.090,309.88z M 376.090,142.7L 41.69,142.7 L 41.69,268.080 l 334.4,0 L 376.090,142.7 z
				 M 250.7,246.77L 167.1,246.77 l0-82.74 l 83.59,0 L 250.69,246.77 z M 146.21,246.77L 62.59,246.77 l0-82.74 l 83.61,0 L 146.2,246.77 z" data-tags="Verification2" />
<glyph unicode="&#x31;" d="M 376.090,309.88L 41.69,309.88 c-22.99,0-41.78-18.8-41.78-41.81L-0.090,142.7 c0-23, 18.79-41.81, 41.78-41.81l 334.4,0 
				c 22.99,0, 41.8,18.81, 41.8,41.81L 417.89,268.080 C 417.89,291.090, 399.080,309.88, 376.090,309.88z M 376.090,142.7L 41.69,142.7 L 41.69,268.080 l 334.4,0 L 376.090,142.7 z
				 M 146.21,246.77L 62.59,246.77 l0-82.74 l 83.61,0 L 146.2,246.77 z" data-tags="Verification1" />
<glyph unicode="&#x30;" d="M 506.16,502.53L 324.070,502.53L 324.070,347.79L 376.080,347.79L 376.080,452.36L 480.15,452.36L 480.15,352.020L 584.23,352.020L 584.23,151.34L 447.2,151.34L 447.2,101.16L 636.24,101.16L 636.24,377.12 	z" data-tags="Verification0" />
<glyph unicode="&#x76;" d="M 530.070,435.22c-1.010,0.010-1.99-0.040-3-0.070c-2.3,48.72-37.68,86.48-83.020,55.68c0,0, 39.25-3.070, 47.69-39.25
		c-40.87,35.79-103.81,25.61-122.43-44.41c0,0, 76.030,49.41, 85.090-13.66c 0.39-2.84, 0.99-5.32, 1.64-7.62
		c-27.7-17.65-113.85-78.36-138.17-187.86c-28.22,53-63.080,124.77-77.3,179.92c 41.16,58.95, 98.080-30.070, 98.080-30.070
		c 12.99,77.49-37.67,119.59-93.63,113.29c 35.28,43.59, 88.050,11.9, 88.050,11.9c-32.49,75.84-109.2,60.54-147.69-1.15
		c-0.66-1.040-1.24-2.090-1.83-3.12c-51.42,28.26-112.34,15.69-109.27-50.16c0,0, 27.83,38.36, 70.22,24.26
		c-62.38-19.43-91.48-90.38-31.4-153.47c0,0-2.9,109.010, 67.48,78.69c 1.61-0.69, 3.1-1.24, 4.6-1.78
		c 18.76-32.91, 69-129.85, 66.74-220.36c-66.48-14.040-126.010-49.050-126.010-90.080l 369.73,0 c0,41.86-59.87,77.37-127.050,90.83
		c 17.090,63.29, 54.96,177.62, 112.070,208.95c 1.3-0.1, 2.58-0.22, 4-0.25c 63.71-1.22, 24.060-82.76, 24.060-82.76
		c 59.15,23.88, 68.030,76.18, 41.59,113.010c 0.050,0.78-0.020,1.57-0.16,2.37c 44.5-7.12, 44.89-57.040, 44.89-57.040
		C 634.71,386.99, 590.55,434.72, 530.070,435.22z" data-tags="Vacation" />
<glyph unicode="&#x271a;" d="M 458.81,206.17c-63.18,23.040-83.39,42.46-83.39,84.060c0,24.96, 19.3,16.82, 27.77,62.54c 3.51,18.96, 20.55,0.3, 23.82,43.61
			c0,17.27-9.31,21.54-9.31,21.54s 4.74,25.55, 6.57,45.21c 2.3,24.5-14.13,87.76-101.85,87.76
			c-87.71,0-104.16-63.26-101.86-87.76c 1.86-19.66, 6.58-45.21, 6.58-45.21s-9.31-4.28-9.31-21.54
			c 3.26-43.31, 20.3-24.65, 23.81-43.61c 8.48-45.72, 27.77-37.58, 27.77-62.54c0-41.6-20.19-61.030-83.38-84.060
			c-63.4-23.11-104.58-46.66-104.58-62.71s0-53.97,0-53.97l 240.97,0 L 563.4,89.49 c0,0,0,37.92,0,53.97S 522.21,183.070, 458.81,206.17z" data-tags="User" />
<glyph unicode="&#x279a;" d="M 540,254.030l0-153.57 c0-2.13-0.89-4.070-2.67-5.86c-1.78-1.77-3.73-2.68-5.87-2.68L 104.88,91.92 
			c-2.13,0-4.090,0.91-5.86,2.68c-1.78,1.79-2.66,3.73-2.66,5.86L 96.36,254.030 c0,2.13, 0.88,4.090, 2.66,5.86
			c 1.77,1.78, 3.73,2.68, 5.86,2.68l 51.2,0 c 2.13,0, 4.080-0.9, 5.87-2.68c 1.76-1.77, 2.66-3.73, 2.66-5.86l0-93.84 l 307.14,0 
			l0,93.84 c0,2.13, 0.88,4.090, 2.67,5.86c 1.77,1.78, 3.74,2.68, 5.87,2.68l 51.18,0 c 2.14,0, 4.090-0.9, 5.87-2.68
			C 539.11,258.12, 540,256.15, 540,254.030z M 454.69,347.88c0-4.27-1.78-8.18-5.33-11.74c-3.56-3.57-7.46-5.32-11.73-5.32
			l-68.25,0 l0-119.45 c0-4.27-1.78-8.18-5.33-11.74c-3.57-3.57-7.46-5.32-11.72-5.32l-68.26,0 c-4.26,0-8.18,1.75-11.73,5.32
			c-3.57,3.55-5.34,7.47-5.34,11.74L 267,330.82 l-68.24,0 c-4.28,0-8.18,1.75-11.74,5.32c-3.56,3.55-5.33,7.47-5.33,11.74
			c0,4.25, 1.77,8.16, 5.33,11.72l 119.44,119.44c 3.54,3.56, 7.47,5.33, 11.73,5.33c 4.28,0, 8.16-1.77, 11.74-5.33
			L 449.36,359.6C 452.91,356.040, 454.69,352.13, 454.69,347.88z" data-tags="Upload" />
<glyph unicode="&#x70;" d="M 559.41,423.12c-13.1,77.61-83.95,129.48-158.23,115.78c-74.28-13.68-136.95-73.42-123.86-151.040
		c 2.82-16.72, 10.64-42.9, 19.89-61.67L 162.32,124.88c-4.97-7.45-7.81-20.81-6.31-29.73l 8.67-51.36
		c 1.51-8.94, 9.72-14.93, 18.26-13.37l 39.52,7.29c 8.54,1.56, 19.38,9.080, 24.090,16.66l 53.35,86.31l 0.46,0.56l 36.11,6.66
		l 62.28,101.11c 20.49-3.62, 49.85-2.41, 67.21,0.79C 540.24,263.5, 572.5,345.48, 559.41,423.12z M 493.6,383.32
		c-20.43-30.48-41.28-9-70.47,12.37c-29.18,21.35-55.63,34.49-35.21,64.95c 20.45,30.5, 60.64,37.92, 89.82,16.57
		C 506.93,455.87, 514.030,413.82, 493.6,383.32z" data-tags="SignIn" />
<glyph unicode="&#x2611;" d="M 319.72,544.31c-15.21-11.88-110.48-82.33-236.65-83.57c 0.89-101.46, 44.64-373.12, 236.65-467.6
		c 191.96,94.48, 235.7,366.14, 236.6,467.6C 430.2,461.97, 334.89,532.43, 319.72,544.31z M 445.69,333.81L 313.53,201.65
		c-6.050-6.060-15.96-6.060-22.020,0l-76.87,76.85c-6.060,6.040-6.060,15.96,0,22.010l 19.62,19.63c 6.060,6.060, 15.98,6.060, 22.030,0
		l 35.23-35.23c 6.050-6.050, 15.96-6.050, 22.010,0l 90.54,90.56c 6.050,6.050, 15.96,6.050, 22.010,0l 19.62-19.64
		C 451.75,349.77, 451.75,339.87, 445.69,333.81z" data-tags="SecurePayment" />
<glyph unicode="&#x73;" d="M 490.91,366.4l0,48.86 C 490.86,508.010, 414.23,583.14, 319.65,583.14c-94.56,0-171.17-75.13-171.22-167.88l0-48.86 
		c-22.61-4.26-39.73-23.66-39.73-47.080l0-215.83 c0-26.49, 21.9-47.95, 48.9-47.95l 324.13,0 c 27.040,0, 48.96,21.46, 48.96,47.95L 530.69,319.32 
		C 530.68,342.77, 513.58,362.18, 490.91,366.4z M 338.030,198.5l0-71.010 l-36.68,0 L 301.35,198.5 c-17.93,7.1-30.61,24.27-30.61,44.38
		c0,26.5, 21.9,48, 48.95,48c 26.99,0, 48.9-21.49, 48.9-48C 368.58,222.77, 355.96,205.6, 338.030,198.5z M 417.49,367.3L 221.85,367.3 l0,47.96 
		c 0.1,53.020, 43.79,95.87, 97.8,95.93c 54.030-0.060, 97.79-42.91, 97.84-95.93L 417.49,367.3 z" data-tags="Secure" />
<glyph unicode="&#x71;" d="M 538.75,476.69L 101.24,476.69 c-8.63,0-15.62-6.99-15.62-15.63l0-62.49 l 468.77,0 l0,62.49 C 554.38,469.7, 547.38,476.69, 538.75,476.69z
		 M 111.66,97.72c0-20.050, 16.41-36.46, 36.46-36.46l 343.76,0 c 20.040,0, 36.46,16.41, 36.46,36.46L 528.34,363.77 L 111.66,363.77 L 111.66,97.72 z M 241.87,311.68
		l 156.25,0 l0-52.080 L 241.87,259.6 L 241.87,311.68 z" data-tags="Save" />
<glyph unicode="&#x77;" d="M 319.68,582.11c 162.33,0, 293.99-131.64, 293.99-293.98
		c0-162.31-131.66-293.96-293.99-293.96c-162.32,0-293.96,131.65-293.96,293.96C 25.73,450.47, 157.36,582.11, 319.68,582.11
		L 319.68,582.11z M 74.62,303.84c 8.67-16.6, 18.47-65.64, 37.9-86c 10.34-10.86, 24.21-29.97, 23.81-42.89
		c-0.49-16.2, 1.52-38.72-0.29-49.78c 45-50.64, 110.6-82.6, 183.64-82.6c 135.61,0, 245.57,109.96, 245.57,245.55
		c0,19.38-2.25,38.2-6.48,56.27c-7.75,2.18-13.75-6.11-21.64-16.040c-6.17-7.77, 1.91-42.020, 2.79-49.18
		c 1.78-14.83-17.77-12.050-23.96-1.23c-9.49,16.68-12.77,36.29-26.070,45.36c-38.44,26.14-26.19-29.62-27.85-31.58
		c-10.66-12.74-34.96-18.88-43.63-11.43c-10.43,8.97-13.070,28.44-26.070,45.89c-7.89,10.62-14.24,15.56-31.89,21.54
		c-17.19,5.89-17.38-14.38-27.97-8.010c-15.2,9.18-13.020,18.38-29.28,22.010c-7.030,1.57-18.87-0.45-30.65-3.24
		c-16.69-3.94-28.75-16.62-41.64-10.13c-17.99,9.080, 14.73,33.16, 21.73,37.33c 30.37,18.020, 32.53,27.25, 34.15,36.45
		c 3.73,21.24, 1.34,21.96, 24.080,32.72c 13.37,6.35, 23.49-3.87, 43.57,1.090c 29.82,7.42, 22.73,48.25, 20.64,71.48
		c-17.79,4.1-36.33,6.27-55.38,6.27c-13.57,0-26.87-1.13-39.84-3.24c 17.58-7.56, 5.53-29.83-8.18-45.91
		c-14.88-17.42-6.55-12.48-30.35-22.020c-10.72-4.3-24.93-9.12-28.91-6.91c-12.66,7.070, 9.41,14.82, 3.74,20.1
		c-5.68,5.27-25.49-3.18-32.69-13.47c-7.35-10.49-15.15-20.070-25.39-25.83c-11.86-6.67-33.9-16.2-47.21-19.12
		C 90.16,383.97, 77.25,345.28, 74.62,303.84L 74.62,303.84z M 315.090,316.35c 9.87-4.85, 16.51,1.86, 25.060,4.19
		c 14.26,3.86, 28.95,5.42, 36.64-6.53c 3.4-5.27, 23.38-41.27, 29.73-57.74c 6.7-17.4, 42.090-5.21, 45.25-19.37
		c 3.73-16.66-17.75-26.040-30-50.69c-7.34-14.77-4.71-31.7-6.72-44.44c-3.67-23.12-38.46-72.27-67.42-64.44
		c-13.69,3.69-32.26,13.020-40.47,33.31c-2.25,5.51-3.38,22.83-6.97,36.53c-4.060,15.49-10.36,27.23-15.35,37.92
		c-9.58,20.55-13.38,21.27-39.92,23.35c-37.71,2.96-63.54,16.63-63.54,44.48c0,22.86, 18.19,66.27, 46.51,75.56
		C 267.52,341.45, 282.8,332.17, 315.090,316.35L 315.090,316.35z M 458.030,197.85c-17.23-3.83-27.17-18.55-27.17-34.090
		c0-15.5, 5.21-22.53, 19.040-22.53c 13.79,0, 36.54,19, 36.54,34.51C 486.45,191.28, 475.25,201.72, 458.030,197.85L 458.030,197.85z" data-tags="Public" />
<glyph unicode="&#x270e;" d="M 548.17,473.4C 506.3,515.28, 474.88,509, 474.88,509L 328.29,362.4L 160.76,194.88l-29.3-138.2l 138.19,29.31l 167.54,167.54
			l 146.58,146.57C 583.77,400.090, 590.070,431.52, 548.17,473.4z M 261.42,102.6l-47.1-10.15c-4.56,8.52-10.020,17.010-20.050,27.040
			c-10.020,10.020-18.53,15.49-27.030,20.060l 10.16,47.090l 13.61,13.62c0,0, 25.64-0.51, 54.58-29.46c 28.95-28.95, 29.47-54.59, 29.47-54.59
			L 261.42,102.6z" data-tags="Pencil" />
<glyph unicode="&#x2713;" d="M 350.2,520.92L 138.84,520.92L 138.84,341.32L 199.21,341.32L 199.21,462.69L 320,462.69L 320,346.23L 440.79,346.23L 440.79,113.31L 325.88,113.31L 325.83,55.070L 501.16,55.070L 501.16,375.37 	zM 183.73,299.23c-66.65,0-120.68-54.040-120.68-120.68c0-66.66, 54.030-120.68, 120.68-120.68s 120.68,54.020, 120.68,120.68
		C 304.41,245.19, 250.38,299.23, 183.73,299.23z M 255.49,222.38l-77.55-124.51c-2.7-4.34-7.34-7.050-12.44-7.29
		c-0.23,0-0.47-0.020-0.69-0.020c-4.83,0-9.4,2.27-12.35,6.15l-39.69,52.4c-5.16,6.82-3.81,16.52, 3,21.68
		c 6.84,5.18, 16.53,3.81, 21.69-2.99l 26.1-34.47l 65.65,105.39c 4.51,7.27, 14.060,9.49, 21.33,4.98
		C 257.79,239.17, 260.010,229.62, 255.49,222.38z" data-tags="DocumentVerified" />
<glyph unicode="&#x2798;" d="M 543.64,253.8l0-154.59 c0-2.15-0.9-4.1-2.69-5.89s-3.76-2.7-5.9-2.7L 105.68,90.62 c-2.15,0-4.13,0.91-5.91,2.7
			c-1.79,1.79-2.67,3.74-2.67,5.89L 97.1,253.8 c0,2.13, 0.88,4.11, 2.67,5.89c 1.78,1.79, 3.76,2.7, 5.91,2.7l 51.53,0 
			c 2.14,0, 4.11-0.91, 5.9-2.7c 1.78-1.78, 2.68-3.76, 2.68-5.89l0-94.46 l 309.16,0 L 474.95,253.8 c0,2.13, 0.88,4.11, 2.69,5.89
			c 1.78,1.79, 3.76,2.7, 5.91,2.7l 51.52,0 c 2.14,0, 4.11-0.91, 5.9-2.7C 542.74,257.91, 543.64,255.93, 543.64,253.8z
			 M 182.97,331.080c0,4.3, 1.79,8.24, 5.37,11.81c 3.59,3.6, 7.51,5.36, 11.81,5.36l 68.69,0 L 268.84,468.48 c0,4.3, 1.8,8.24, 5.37,11.81
			c 3.59,3.6, 7.51,5.36, 11.81,5.36l 68.69,0 c 4.3,0, 8.25-1.76, 11.82-5.36c 3.59-3.57, 5.37-7.51, 5.37-11.81l0-120.23 l 68.7,0 
			c 4.3,0, 8.23-1.76, 11.81-5.36c 3.58-3.57, 5.37-7.51, 5.37-11.81c0-4.28-1.79-8.21-5.37-11.8L 332.18,199.050
			c-3.57-3.58-7.51-5.37-11.81-5.37c-4.3,0-8.22,1.79-11.81,5.37L 188.33,319.27C 184.76,322.86, 182.97,326.79, 182.97,331.080
			z" data-tags="Download" />
<glyph unicode="&#x75;" d="M 126.99,250.45c 3.43-31.090, 6.7-87.58, 20.42-95.41c 54.010-30.86, 152.53-85.71, 169.93-85.71
		c 16.15,0, 96.39,44.32, 129.41,61.54c 15.040,7.83, 30.72,90.18, 32.68,101.94c0,0-114.78-83.66-160.12-83.66
		C 267.92,149.15, 126.99,250.45, 126.99,250.45z M 593.33,364.65l-239.5,134.14c-18.79,10.51-49.48,10.51-68.26,0L 46.040,364.65
		c-18.75-10.49-18.75-27.69,0-38.2L 285.57,192.3c 18.78-10.48, 49.47-10.48, 68.26,0l 154.83,86.73l-152.11,47.26
		c-6.48-1.61-29.4-10.42-36.85-10.42c-30.25,0-54.77,14.58-54.77,32.57c0,18, 24.52,32.6, 54.77,32.6
		c 23.48,0, 43.44-8.84, 51.24-21.18l 177.85-58.36l 44.54,24.97C 612.11,336.96, 612.11,354.16, 593.33,364.65z M 508.17,106.66
		c0-11.2, 40.52-16.98, 40.52,2.62c0,128.14, 0.1,192.2, 0.1,192.2l-40.13-22.46C 508.66,279.030, 508.17,221.050, 508.17,106.66z" data-tags="Education" />
<glyph unicode="&#x2709;" d="M 81.17,411.17c 13.84-7.45, 205.67-110.49, 212.81-114.33c 7.15-3.84, 16.4-5.68, 25.71-5.68
			c 9.33,0, 18.57,1.85, 25.73,5.68c 7.12,3.84, 198.93,106.88, 212.81,114.33c 13.83,7.44, 26.96,30.81, 1.5,30.81L 79.65,441.98 
			C 54.21,441.98, 67.3,418.62, 81.17,411.17z M 564.090,354.43c-15.76-8.22-209.060-109.29-218.67-114.33
			c-9.66-5.030-16.4-5.68-25.73-5.68c-9.32,0-16.070,0.65-25.71,5.68C 284.35,245.14, 91.050,346.21, 75.3,354.43
			c-11.070,5.79-10.98-1.010-10.98-6.24c0-5.23,0-208.16,0-208.16c0-11.88, 15.84-27.21, 28.14-27.21l 454.45,0 
			c 12.31,0, 28.15,15.32, 28.15,27.21c0,0,0,202.93,0,208.16C 575.070,353.42, 575.19,360.22, 564.090,354.43z" data-tags="Email" />
<glyph unicode="&#x27b6;" d="M 421.71,339.86L 421.71,96 l 121.74,0 L 543.45,339.86 c0,6.49-5.28,11.78-11.77,11.78l-98.16,0 C 427,351.63, 421.71,346.35, 421.71,339.86zM 270.010,284.14c-6.51,0-11.8-5.27-11.8-11.79L 258.21,96 l 121.74,0 L 379.95,272.36 c0,6.51-5.27,11.79-11.81,11.79L 270.010,284.15 zM 217.69,211.61c0,6.5-5.27,11.8-11.79,11.8l-98.14,0 c-6.53,0-11.81-5.29-11.81-11.8L 95.95,96 l 121.74,0 L 217.69,211.61 zM 173.020,315.38l 92.52,92.5l 47.5-47.55c 4.38-4.36, 10.42-6.87, 16.6-6.87s 12.23,2.51, 16.61,6.87L 447.9,461.98l0-34.4 
			c0-11.060, 8.96-20.020, 20.040-20.020c 11.050,0, 20.030,8.96, 20.030,20.020l0,90.8 c0,5.25-2.16,10.41-5.87,14.13
			c-3.75,3.75-8.9,5.89-14.16,5.89l-90.79,0 c-11.050,0-20.010-8.96-20.010-20.020c0-11.070, 8.96-20.040, 20.010-20.040l 40.69,0 
			l-88.18-88.18l-47.51,47.54c-4.44,4.43-10.34,6.88-16.61,6.88c-6.27,0-12.17-2.45-16.61-6.88L 139.81,348.57
			c-9.17-9.15-9.17-24.050,0-33.18C 148.98,306.19, 163.85,306.19, 173.020,315.38z" data-tags="GreatReturns" />
<glyph unicode="&#x72;" d="M 255.38,296.85L 284.57,326.16L 224.26,386.94L 216.74,422.68L 119.24,486.93L 95.040,462.66L 159.24,365.26L 194.99,357.72 		zM 514,73.47c-25.1-25.1-65.7-25.1-90.76,0L 242.55,253.46l 90.68,90.79L 514,164.15
			C 539.060,139.13, 539.060,98.48, 514,73.47zM 124.34,158.040l0,0.020 l 92.12,86.69l 83.39-83.37c-38.61-41.78-70.34-76.53-86.38-92.5l 0.010-0.030
			c-24.8-24.89-64.98-25.060-89.62-0.47C 99.25,93.050, 99.46,133.16, 124.34,158.040z M 150.21,94.74c 9.98-9.92, 26.060-9.92, 36.010,0
			c 9.92,9.95, 9.92,26.080,0,35.99c-9.95,9.92-26.040,9.92-36.010,0C 140.26,120.82, 140.26,104.69, 150.21,94.74zM 459.96,522.93c 15.96,0, 31.19-3.2, 45.020-8.96l-63.030-63.030c-11.35-11.39-11.35-29.99,0-41.38l 24-23.99
			c 11.37-11.36, 30-11.36, 41.37,0l 62.21,62.24c 5.1-13.16, 8.050-27.46, 8.050-42.44c0-64.94-52.66-117.56-117.62-117.56
			c-64.92,0-117.55,52.62-117.55,117.56C 342.41,470.26, 395.040,522.93, 459.96,522.93z" data-tags="HomeImprovement" />
<glyph unicode="&#x6b;" d="M 333.98,269.77c0-20.62-16.69-37.31-37.3-37.31L 146.050,232.46 c-20.61,0-37.31,16.7-37.31,37.31l0,26.46 
			c0,20.62, 16.7,37.32, 37.31,37.32l 150.62,0 c 20.61,0, 37.3-16.71, 37.3-37.32L 333.97,269.77 zM 541.26,440.61c0-20.59-16.7-37.3-37.3-37.3l-357.9,0 c-20.61,0-37.31,16.72-37.31,37.3l0,26.48 c0,20.61, 16.7,37.3, 37.31,37.3
			l 357.9,0 c 20.61,0, 37.3-16.7, 37.3-37.3L 541.26,440.61 zM 499.79,98.91c0-20.59-16.7-37.3-37.3-37.3L 146.050,61.61 c-20.61,0-37.31,16.72-37.31,37.3l0,26.48 c0,20.6, 16.7,37.3, 37.31,37.3
			l 316.44,0 c 20.61,0, 37.3-16.71, 37.3-37.3L 499.79,98.91 z" data-tags="Listing" />
<glyph unicode="&#x79;" d="M 491.21,522.68l-55.12,0 c-13.85,0-20.060-11.22-20.060-25.060l0-425.94 l 100.23,0 L 516.26,497.62 C 516.27,511.46, 505.060,522.68, 491.21,522.68z
		 M 340.88,372.35l-55.12,0 c-13.83,0-20.040-11.21-20.040-25.060l0-275.61 l 100.22,0 L 365.94,347.29 C 365.94,361.13, 354.73,372.35, 340.88,372.35z
		 M 190.56,222.020l-55.12,0 c-13.84,0-20.040-11.22-20.040-25.070l0-125.27 l 100.22,0 L 215.62,196.96 C 215.62,210.8, 204.39,222.020, 190.56,222.020z" data-tags="Listings" />
<glyph unicode="&#x6c;" d="M 237.82,264l 155.45,0 l0,49.96 L 237.82,313.96 L 237.82,264 z M 453.73,537.99L 176.12,537.99 c-30.54,0-55.53-24.99-55.53-55.53L 120.59,93.8 
			c0-30.54, 24.99-55.52, 55.53-55.52l 277.61,0 c 30.54,0, 55.53,24.98, 55.53,55.52L 509.26,482.46 C 509.26,513, 484.27,537.99, 453.73,537.99z
			 M 453.73,93.8L 176.12,93.8 L 176.12,482.46 l 277.61,0 L 453.73,93.8 z M 392.66,422.24L 237.19,422.24 l0-48.59 l 155.47,0 L 392.66,422.24 z M 392.66,204.31L 237.19,204.31 l0-48.58 l 155.47,0 
			L 392.66,204.31 z" data-tags="Loan" />
<glyph unicode="&#x6a;" d="M 485.68,516.8l-54,0 c-13.56,0-19.64-11-19.64-24.55l0-417.35 l 98.19,0 L 510.23,492.25 C 510.23,505.8, 499.25,516.8, 485.68,516.8z
		 M 338.39,369.49l-54.010,0 c-13.56,0-19.64-11-19.64-24.55l0-270.050 l 98.2,0 L 362.94,344.94 C 362.94,358.5, 351.95,369.49, 338.39,369.49z
		 M 191.090,222.19l-54.010,0 c-13.56,0-19.64-10.99-19.64-24.55l0-122.74 l 98.2,0 L 215.64,197.64 C 215.64,211.2, 204.65,222.19, 191.090,222.19z" data-tags="LoanRequest" />
<glyph unicode="&#x62;" d="M 165.37,90.46c0-27.49, 22.28-49.78, 49.77-49.78c 27.51,0, 49.78,22.29, 49.78,49.78s-22.27,49.79-49.78,49.79
		C 187.65,140.25, 165.37,117.95, 165.37,90.46z M 414.26,90.46c0-27.49, 22.29-49.78, 49.77-49.78c 27.5,0, 49.77,22.29, 49.77,49.78
		s-22.27,49.79-49.77,49.79C 436.54,140.25, 414.26,117.95, 414.26,90.46z M 253.65,208.14l 275.47,78.69
		c 5.25,1.5, 9.57,7.22, 9.57,12.69L 538.69,436.41 L 187.77,436.41 l0,42.31 c0,5.47-4.48,9.95-9.96,9.95l-77.15,0 
		c-5.47,0-9.95-4.48-9.95-9.95l0-39.83 l 48.37,0 l 48.96-225.4l 4.7-23.47l0-37.34 c0-5.47, 4.48-9.95, 9.95-9.95l 12.45,0 l 248.88,0 l 64.71,0 
		c 5.47,0, 9.96,4.48, 9.96,9.95l0,37.34 L 258.76,190.020 C 230.14,190.020, 229.56,201.23, 253.65,208.14z" data-tags="MajorPurchase" />
<glyph unicode="&#x6d;" d="M 92.21,474.75c 3.87,3.84, 8.090,5.78, 12.71,5.78l 295.89,0 c 4.64,0, 8.88-1.94, 12.73-5.78
		c 3.85-3.87, 5.76-8.1, 5.76-12.72l0-55.47 l 46.23,0 c 5.42,0, 11-1.16, 16.78-3.47c 5.76-2.31, 10.61-5.41, 14.44-9.25l 57.78-57.79
		c 2.31-2.31, 4.43-5.020, 6.36-8.1c 1.93-3.090, 3.3-5.98, 4.030-8.66c 0.8-2.71, 1.37-6.36, 1.75-10.99
		c 0.4-4.61, 0.6-7.9, 0.6-9.82s0-5.6,0-10.98c0-5.41,0-8.88,0-10.41l0-92.46 c 4.61,0, 8.86-1.93, 12.71-5.78
		c 3.87-3.87, 5.78-8.11, 5.78-12.71c0-3.090-0.4-5.78-1.16-8.11c-0.75-2.3-2.12-4.020-4.050-5.2
		c-1.91-1.15-3.48-2.13-4.61-2.89c-1.17-0.78-3.28-1.35-6.36-1.72c-3.080-0.41-5.38-0.59-6.94-0.59
		c-1.54,0-4.050,0-7.5,0c-3.48,0-5.59,0-6.39,0l-18.49,0 c0-20.040-7.29-37.36-21.96-52.010c-14.62-14.63-31.94-21.97-51.98-21.97
		c-20.050,0-37.39,7.34-52.030,21.97c-14.63,14.65-21.97,31.97-21.97,52.010L 271.35,147.63 c0-20.040-7.29-37.36-21.96-52.010
		c-14.62-14.63-31.94-21.97-52-21.97c-20.020,0-37.37,7.34-52.020,21.97c-14.62,14.65-21.96,31.97-21.96,52.010
		c-0.75,0-2.88,0-6.35,0c-3.48,0-5.96,0-7.52,0c-1.54,0-3.84,0.18-6.92,0.59c-3.080,0.37-5.21,0.94-6.35,1.72
		c-1.17,0.76-2.71,1.74-4.64,2.89c-1.91,1.17-3.25,2.89-4.040,5.2c-0.75,2.32-1.14,5.020-1.14,8.11L 86.45,462.030 
		C 86.43,466.66, 88.36,470.89, 92.21,474.75z M 530.26,304.84c0,2.3-0.74,4.23-2.3,5.78l-56.64,56.64
		c-1.54,1.52-3.47,2.31-5.78,2.31l-46.23,0 l0-73.98 l 110.96,0 L 530.27,304.84 z M 456.32,110.66c 10.020,0, 18.68,3.65, 26,10.98
		c 7.32,7.3, 10.97,16, 10.97,26.020c0,10-3.64,18.67-10.97,26c-7.31,7.32-15.98,11-26,11s-18.71-3.67-26.030-11
		c-7.32-7.32-10.99-16-10.99-26c0-10.020, 3.66-18.71, 10.99-26.020C 437.61,114.31, 446.3,110.66, 456.32,110.66z M 197.39,110.66
		c 10.030,0, 18.69,3.65, 26.020,10.98c 7.32,7.3, 10.97,16, 10.97,26.020c0,10-3.65,18.67-10.97,26c-7.32,7.32-15.99,11-26.020,11
		c-10,0-18.69-3.67-26.010-11c-7.32-7.32-11-16-11-26c0-10.020, 3.67-18.71, 11-26.020
		C 178.71,114.31, 187.39,110.66, 197.39,110.66z" data-tags="MovingandRelocation" />
<glyph unicode="&#x272e;" d="M 519.080,359.16c0-3.2-1.92-7.040-5.76-11.5l-87.23-84.36l 20.12-119.81c0-1.27,0-2.88,0-4.8
			c0-3.83-0.8-6.86-2.38-9.1c-1.62-2.22-4.010-3.36-7.2-3.36c-2.56,0-5.76,0.96-9.59,2.87L 319.7,185.67
			l-107.35-56.56c-3.84-1.92-7.050-2.87-9.59-2.87c-3.83,0-6.55,1.12-8.15,3.36c-1.61,2.24-2.4,5.27-2.4,9.1
			c0,0.64, 0.32,2.23, 0.96,4.8l 20.13,119.81L 126.060,347.66c-3.83,4.46-5.76,8.3-5.76,11.5c0,6.39, 4.46,10.22, 13.43,11.49
			l 120.78,17.27l 53.67,109.28c 2.55,6.39, 6.4,9.6, 11.5,9.6c 5.11,0, 8.95-3.22, 11.5-9.6l 53.67-109.28l 120.79-17.27
			C 514.59,369.38, 519.080,365.55, 519.080,359.16z" data-tags="Other" />
<glyph unicode="&#x270d;" d="M 273.6,70.93c-1.3,7.77-6.78,40.66-6.78,40.66s-15.47-2.010-26.19-10.83c-10.68-8.81-15.35-23.35-15.35-23.35
			s 31.28-11.84, 38.83-14.58C 271.67,60.090, 274.89,63.21, 273.6,70.93zM 51.61,256.56l 12.29-15.030l 121.97-148.77l 11.96,24.75l 24.91,5.59l 10.74,23.77l 25.88,6.35l-85,103.7l-11.7,14.29
			l-8.19,10l-16.040,19.57l-42.71,52.28c0,0-7.85,1.18-18.7-0.83c-5.32-0.98-11.41-2.74-17.59-5.79
			c-4.22-2.060-8.51-4.74-12.66-8.15c-4.18-3.43-7.64-7.11-10.5-10.89c-3.48-4.53-6.11-9.16-8.090-13.49
			c-5.34-11.73-5.99-21.32-5.99-21.32l 20.16-24.69l 1.68-2.070L 51.61,256.56zM 350.21,520.93L 138.84,520.93L 138.84,341.32L 199.22,341.32L 199.22,462.7L 320.010,462.7L 320.010,346.23L 440.79,346.23L 440.79,113.31L 305.89,113.31L 305.83,55.070L 501.16,55.070L 501.16,375.37 	z" data-tags="DocumentSign" />
<glyph unicode="&#x61;" d="M 546.13,342.78c-11.010,2.81-34.74,8.87-41.080,9.89c-12.41,2-17.58,6.15-31.020,16.67
		c-52.71,41.37-109.020,73.34-185.55,77.060c-95.84,4.64-176.61-0.95-240.15-70.68c-16.35-17.96-20.87-36.25-20.87-52.58
		c0-20.27-0.060-40.55-0.060-60.83c0-29.56, 18.8-44.5, 41.65-50.35c0,0, 0.23-1.16,0,0c 5.79-28.95, 36.11-55.010, 71.68-55.010
		c 34.93,0, 64.74,24.030, 70.88,52.24c-0.33-1.52,0,0,0,0L 418.3,209.2l0,0c 7.17-29.48, 35.96-52.26, 70.91-52.26
		c 34.99,0, 63.13,19.64, 70.89,52.28c-0.37-1.56,0,0,0,0l 12.6,0 c 21.22,0, 38.34,17.12, 38.34,38.31l0,15.94 l 0.020,5.11
		C 611.050,303.59, 578.020,334.65, 546.13,342.78z M 140.73,201.56c-16.24,0-29.4,13.15-29.4,29.38c0,16.25, 13.16,29.41, 29.4,29.41
		s 29.38-13.16, 29.38-29.41C 170.12,214.72, 156.97,201.56, 140.73,201.56z M 250.1,343.56c-2.87-3.19-7.14-5.18-10.7-5.18L 120.16,338.38 
		c-11.34,0-18.050,11.050-14.76,20.35c 8.42,23.9, 41.82,41.25, 65,48.22c 23.83,7.17, 47.85,8.55, 68.040,8.55
		c 8.56,0, 15.5-7.3, 15.48-15.47l 0.020-46.68C 253.95,349.76, 252.4,346.12, 250.1,343.56z M 299.17,338.39
		c-3.57,0-7.83,1.99-10.71,5.18c-2.3,2.55-3.85,6.2-3.85,9.79l 0.040,46.68c-0.030,8.17, 6.36,15.4, 15.46,15.47
		c 42.33,0.36, 101.98-19.5, 128.25-51.64c 2.070-2.54, 3.16-5.37, 3.5-8.16c 1.010-8.73-5.71-17.27-15.47-17.32l-98.12,0 L 299.17,338.39 z
		 M 489.21,201.56c-16.23,0-29.39,13.15-29.39,29.38c0,16.25, 13.16,29.41, 29.39,29.41s 29.39-13.16, 29.39-29.41
		C 518.6,214.72, 505.44,201.56, 489.21,201.56z" data-tags="CarLoan" />
<glyph unicode="&#x64;" d="M 256.010,288.22l 128.77,0 l0-22.25 l 199.29,0 c0,0-3.91,107.37-5.28,144.17c-1.29,34.99-13.83,56.61-52.73,56.61l-84.57,0 
		c-13.12,24.71-27.21,51.28-31.55,59.45c-8.73,16.43-11.7,19.64-31.090,19.64L 261.97,545.84 c-19.39,0-22.37-3.21-31.090-19.64
		c-4.34-8.17-18.44-34.74-31.55-59.45l-84.58,0 c-38.93,0-51.28-21.62-52.75-56.61c-1.43-34.97-5.26-144.17-5.26-144.17l 199.26,0 
		L 256,288.22 z M 258.44,495.32c 6.040,11.39, 8.1,13.6, 21.52,13.6l 80.88,0 c 13.41,0, 15.47-2.21, 21.51-13.6
		c 2.26-4.28, 8.38-15.81, 15.15-28.57L 243.27,466.75 C 250.040,479.51, 256.18,491.040, 258.44,495.32z M 384.78,207.21L 256.010,207.21 l0,22.26 L 69.93,229.47 
		c0,0, 3.28-47.43, 5.27-87.62c 0.82-16.67, 5.73-44.22, 47.43-44.22l 395.52,0 c 41.71,0, 46.52,27.55, 47.43,44.22
		c 2.32,41.35, 5.28,87.62, 5.28,87.62L 384.78,229.47 L 384.78,207.21 z" data-tags="BusinessLoan" />
<glyph unicode="&#x274f;" d="M 350.19,520.92L 138.83,520.92 l0-465.85 l 362.33,0 l0,320.3 L 350.19,520.92z M 199.21,113.31L 199.21,462.69 l 120.78,0 l0-116.46 l 120.8,0 l0-232.92 L 199.21,113.31 z" data-tags="Document" />
<glyph unicode="&#x274d;" d="M 295.21,514.73c0-67.79-0.29-255.26-0.29-255.26s 190.67-0.080, 255.61-0.080
			c0-141.040-114.28-255.36-255.32-255.36c-141.030,0-255.36,114.32-255.36,255.36c0,140.54, 113.54,254.57, 253.9,255.34
			C 294.25,514.73, 294.73,514.73, 295.21,514.73zM 336.33,574.17c 151.83,0, 274.85-123.080, 274.85-274.88l-275.26-0.42
			C 335.92,298.87, 335.23,574.17, 336.33,574.17z" data-tags="DiversifyPortfolio" />
<glyph unicode="&#x27b2;" d="M 164.43,538.25l 166.74,0 l 208.44-250.13L 331.17,38.020L 164.43,38.020 l 208.44,250.11
		L 164.43,538.25z" data-tags="BulletPoint" />
<glyph unicode="&#x69;" d="M 139.76,398.6l0-323.26 c0-9.41, 1.79-18.12, 8.96-25.3
		c 7.31-7.29, 15.96-8.95, 25.33-8.95L 320,41.090 l 145.94,0 c 9.39,0, 18.070,1.65, 25.35,8.95c 7.17,7.19, 8.96,15.89, 8.96,25.3L 500.25,398.6 L 139.76,398.6 
		L 139.76,398.6zM 515.62,491.14c-6.68,6.68-14.84,8.48-23.67,8.48L 390.21,499.62 l0,54.7 
		c0,6.72-1.54,13.010-6.58,18.060c-4.88,4.87-11.090,6.56-17.64,6.56L 320,578.94 l-45.98,0 c-6.54,0-12.75-1.69-17.63-6.56
		c-5.050-5.050-6.6-11.34-6.6-18.060l0-54.7 L 148.060,499.62 c-8.81,0-16.99-1.8-23.67-8.48c-7.46-7.45-8.52-16.010-8.52-25.52l0-26.37 
		l0-8.96 l 8.97,0 L 320,430.29 l 195.18,0 l 8.95,0 l0,8.96 l0,26.37 C 524.12,475.14, 523.090,483.69, 515.62,491.14z M 289.35,499.62L 289.35,536.61 L 289.35,543.97 
		c0,1.43, 0.16,2.63, 1.3,3.78c 1.17,1.15, 2.55,1.3, 3.96,1.3L 320,549.050 l 25.4,0 c 1.41,0, 2.79-0.15, 3.95-1.3
		c 1.17-1.15, 1.33-2.35, 1.33-3.78l0-7.35 l0-36.99 L 320,499.63 L 289.35,499.63 z" data-tags="Delete" />
<glyph unicode="&#x63;" d="M 292.83,222.7l 167.59,0 l 0.020,0 c 6.47,0, 11.67,5.22, 11.67,11.7c 0.050,6.47-5.22,11.7-11.69,11.7l-167.59,0 
			c-6.49,0.050-11.73-5.23-11.73-11.7c0-1.12, 0.34-2.16, 0.64-3.19C 283.13,226.31, 287.46,222.7, 292.83,222.7zM 586.56,405.42L 265.95,405.42 c-26.65,0-48.21-21.57-48.24-48.17l 0.020-74.41l0-74.95 l0-33.76 c-0.23-1.25-0.25-2.27-0.020-2.71
			c 0.020-0.16, 0.020-0.25, 0.020-0.36c 0.48-26.23, 21.94-47.23, 48.21-47.23l 320.61,0 c 26.69,0, 48.26,21.58, 48.26,48.27L 634.82,357.22 
			C 634.79,383.85, 613.26,405.42, 586.56,405.42z M 601.61,172.13c0-8.37-6.66-15.070-15.040-15.070L 265.95,157.050 
			c-7.99,0.020-14.47,6.18-15.010,13.9l0,49.050 l-0.020,56.59l 350.68,0 L 601.6,172.13 z M 601.61,335.59L 250.94,335.59 l0,21.6 
			c0,8.36, 6.74,15.1, 15.030,15.060l 320.61,0 c 8.35,0, 15.040-6.71, 15.040-15.040L 601.61,335.59 zM 436.43,431.59l-33.53,92.090c-7.18,19.59-25.61,31.79-45.29,31.75c-5.59,0-11.14-0.96-16.54-2.92L 39.75,442.84
			c-19.56-7.1-31.74-25.57-31.74-45.3c0-5.49, 0.93-11.080, 2.95-16.47l0-0.010 l 63.36-174.040c 7.050-19.51, 25.53-31.7, 45.22-31.7
			c 5.46,0, 11.1,0.94, 16.53,2.89l 55.53,20.21l-0.050,74.9l-62.4-22.72c-1.31-0.47-2.67-0.7-4-0.7
			c-4.8,0-9.27,2.98-10.99,7.69c-2.2,6.090, 0.95,12.83, 7.040,15.040l 70.37,25.61l-0.030,59.020
			c0,0.61, 0.060,1.2, 0.090,1.81c 0.94,40.19, 33.82,72.48, 74.28,72.53L 436.43,431.59 z M 149.19,330.6l-35.1-12.75
			c-2.22-0.79-4.47-1.15-6.63-1.15c-7.9,0-15.33,4.84-18.080,12.66l-8.55,23.48c-0.81,2.19-1.23,4.42-1.23,6.64
			c0,7.89, 4.86,15.3, 12.72,18.15l 35.010,12.71c 2.16,0.8, 4.42,1.22, 6.67,1.22c 7.84,0, 15.25-4.86, 18.1-12.69l 8.59-23.52
			c 0.81-2.19, 1.18-4.42, 1.16-6.63C 161.84,340.84, 156.94,333.56, 149.19,330.6z" data-tags="CreditCardRefinancing" />
<glyph unicode="&#xae;" d="M 216.71,472.43c0-57.010, 46.21-103.22, 103.22-103.22c 57,0, 103.23,46.21, 103.23,103.22c0,56.99-46.23,103.2-103.23,103.2
		C 262.92,575.64, 216.71,529.43, 216.71,472.43L 216.71,472.43z M 457.6,334.81l-0.1,0 l-18.96,0 L 331.5,117.49l 40.040,200.11l-51.61,51.61
		l-51.61-51.61l 40.020-200.11L 201.33,334.81l-18.96,0 l-0.080,0 c-68.78,0-68.78-46.24-68.78-103.22l0-172.020 l 412.87,0 L 526.38,231.58 
		C 526.37,288.57, 526.37,334.81, 457.6,334.81z" data-tags="Company" />
<glyph unicode="&#x74;" d="M 318.93,582.010C 156.53,582.010, 24.91,450.38, 24.91,288c0-162.4, 131.62-294.010, 294.020-294.010
		c 162.38,0, 294.020,131.61, 294.020,294.010C 612.95,450.38, 481.31,582.010, 318.93,582.010z M 438.52,341.15
		c 0.1-2.5, 0.14-4.99, 0.14-7.51c0-76.52-58.22-164.77-164.75-164.77c-32.7,0-63.12,9.6-88.76,26.040
		c 4.53-0.55, 9.12-0.82, 13.8-0.82c 27.13,0, 52.11,9.25, 71.93,24.79c-25.33,0.47-46.74,17.23-54.1,40.23
		c 3.54-0.69, 7.17-1.060, 10.9-1.060c 5.27,0, 10.39,0.71, 15.25,2.040c-26.48,5.31-46.45,28.73-46.45,56.8
		c0,0.23,0,0.47,0,0.72c 7.79-4.34, 16.74-6.95, 26.21-7.26c-15.53,10.4-25.74,28.12-25.74,48.22
		c0,10.61, 2.85,20.54, 7.83,29.1c 28.55-35.040, 71.23-58.080, 119.36-60.52c-1,4.26-1.5,8.68-1.5,13.21
		c0,31.99, 25.94,57.9, 57.93,57.9c 16.64,0, 31.7-7.030, 42.27-18.28c 13.18,2.6, 25.59,7.41, 36.78,14.050
		c-4.34-13.53-13.5-24.87-25.47-32.040c 11.7,1.41, 22.87,4.51, 33.24,9.11C 459.63,359.5, 449.8,349.31, 438.52,341.15z" data-tags="CircleTwitter" />
<glyph unicode="&#x40;" d="M 320,582.25c-162.44,0-294.12-131.68-294.12-294.11C 25.88,125.7, 157.56-5.98, 320-5.98
		c 162.45,0, 294.13,131.68, 294.13,294.12C 614.12,450.57, 482.44,582.25, 320,582.25z M 137.14,410.1l 373.38,0 c 19.8,0, 9.59-18.16-1.19-23.96
		c-10.8-5.78-159.96-85.92-165.51-88.91c-5.55-2.98-12.75-4.42-20-4.42c-7.25,0-14.43,1.45-20,4.42
		c-5.55,2.99-154.74,83.12-165.5,88.91C 127.53,391.94, 117.35,410.1, 137.14,410.1z M 522.44,175.27c0-9.25-12.3-21.16-21.89-21.16
		L 147.1,154.11 c-9.57,0-21.88,11.91-21.88,21.16c0,0,0,157.82,0,161.88c0,4.070-0.070,9.36, 8.54,4.86
		c 12.25-6.4, 162.58-85, 170.070-88.93c 7.5-3.91, 12.75-4.41, 20-4.41c 7.25,0, 12.5,0.51, 20,4.41
		c 7.48,3.93, 157.83,82.53, 170.080,88.93c 8.63,4.49, 8.54-0.79, 8.54-4.86C 522.44,333.090, 522.44,175.27, 522.44,175.27z" data-tags="CircleMail" />
<glyph unicode="&#x67;" d="M 292.35,371.14c-7.4,26.040-19.34,33.71-37.93,33.71c-2.010,0-4.020-0.27-5.96-0.82
		c-8.030-2.26-14.41-8.98-18.010-18.95c-3.61-10.13-3.87-20.65-0.7-32.71c 5.64-21.44, 20.9-37.020, 36.29-37.020
		c 2.010,0, 4,0.28, 5.94,0.83C 288.79,320.93, 299.32,346.59, 292.35,371.14z M 320,582.010C 157.62,582.010, 25.98,450.38, 25.98,288
		c0-162.4, 131.65-294.010, 294.030-294.010c 162.4,0, 294.020,131.61, 294.020,294.010C 614.020,450.38, 482.4,582.010, 320,582.010z M 303.070,161.75
		c-18.48-8.98-38.36-9.93-46.050-9.93c-1.46,0-2.3,0.030-2.42,0.030c0,0-0.55,0-1.5,0c-12.010,0-71.78,2.74-71.78,57.18
		c0,53.49, 65.080,57.65, 85.020,57.65l 0.53,0 c-11.5,15.38-9.12,30.9-9.12,30.9c-1-0.080-2.48-0.16-4.32-0.16
		c-7.5,0-21.97,1.21-34.43,9.25c-15.23,9.79-22.95,26.47-22.95,49.6c0,65.25, 71.27,67.89, 71.97,67.9l 71.17,0 l0-1.53 
		c0-7.98-14.27-9.48-24.040-10.84c-3.3-0.43-9.94-1.12-11.8-2.1c 17.99-9.62, 20.92-24.74, 20.92-47.29
		c0-25.64-10.040-39.23-20.7-48.75c-6.58-5.91-11.78-10.57-11.78-16.76c0-6.070, 7.13-12.31, 15.37-19.57
		c 13.52-11.89, 32.030-28.14, 32.030-55.43C 339.18,193.62, 327.040,173.39, 303.070,161.75z M 458.67,288.27l-46.43,0 l0-46.44 l-29.39,0 l0,46.44 
		l-46.43,0 l0,29.39 l 46.43,0 l0,46.45 l 29.39,0 l0-46.45 l 46.43,0 L 458.67,288.27 z M 265.57,252.72c-1.58,0-3.18-0.050-4.8-0.16
		c-13.61-1.010-26.13-6.080-35.25-14.37c-9-8.15-13.57-18.38-12.93-28.83c 1.37-21.74, 24.75-34.5, 53.14-32.44
		c 27.95,2.030, 46.56,18.090, 45.2,39.85C 309.63,237.28, 291.84,252.72, 265.57,252.72z" data-tags="CircleGoogle" />
<glyph unicode="&#x66;" d="M 319.69,582.010C 157.3,582.010, 25.68,450.38, 25.68,288c0-162.4, 131.63-294.010, 294.010-294.010
		c 162.4,0, 294.020,131.61, 294.020,294.010C 613.71,450.38, 482.090,582.010, 319.69,582.010z M 389.34,378.82l-44.2,0 
		c-5.23,0-11.050-6.88-11.050-16.050l0-31.93 l 55.25,0 l0-45.49 l-55.25,0 l0-136.63 l-52.19,0 L 281.9,285.34 l-47.3,0 l0,45.49 l 47.3,0 l0,26.8 
		c0,38.4, 26.66,69.64, 63.24,69.64l 44.2,0 L 389.34,378.82 z" data-tags="CircleFacebook" />
<glyph unicode="&#x7a;" d="M 329.87,433.32L 233.32,433.32L 233.32,154.030L 426.44,154.030L 426.44,340.21L 329.87,340.21 		zM 319.7,582.25c-162.44,0-294.12-131.68-294.12-294.11c0-162.44, 131.68-294.12, 294.12-294.12
			c 162.44,0, 294.12,131.68, 294.12,294.12C 613.82,450.57, 482.14,582.25, 319.7,582.25z M 474.7,107.47L 185.060,107.47 L 185.060,479.87 l 168.95,0 L 474.7,363.52
			L 474.7,107.47 z" data-tags="CircleDoc" />
<glyph unicode="&#x221a;" d="M 319.7,582.12c-162.44,0-294.12-131.68-294.12-294.11c0-162.44, 131.68-294.12, 294.12-294.12
		c 162.44,0, 294.12,131.68, 294.12,294.12C 613.82,450.44, 482.14,582.12, 319.7,582.12z M 470.010,401.25L 307.57,140.47
		c-5.64-9.050-15.37-14.77-26.040-15.24c-0.51-0.020-1-0.040-1.48-0.040c-10.13,0-19.71,4.74-25.85,12.85l-83.13,109.78
		c-10.81,14.28-7.99,34.6, 6.28,45.42c 14.3,10.82, 34.61,7.99, 45.43-6.28l 54.67-72.19l 137.5,220.77
		c 9.47,15.18, 29.45,19.83, 44.69,10.38C 474.83,436.46, 479.46,416.46, 470.010,401.25z" data-tags="CircleCheck" />
<glyph unicode="&#x2297;" d="M 319.7,582.25c-162.44,0-294.12-131.68-294.12-294.11c0-162.44, 131.68-294.12, 294.12-294.12
			c 162.44,0, 294.12,131.68, 294.12,294.12C 613.82,450.57, 482.14,582.25, 319.7,582.25z" data-tags="Circle " />
<glyph unicode="&#x2714;" d="M 268.94,73.070c-11.73,0-22.84,5.49-29.97,14.9l-96.38,127.29c-12.54,16.55-9.27,40.13, 7.28,52.66
				c 16.58,12.56, 40.14,9.27, 52.68-7.28l 63.39-83.7l 159.44,255.99c 10.98,17.61, 34.14,23, 51.8,12.040
				c 17.62-10.98, 23.010-34.16, 12.030-51.79L 300.86,90.79c-6.54-10.52-17.84-17.12-30.21-17.69
				C 270.080,73.080, 269.51,73.070, 268.94,73.070z" data-tags="Checkmark" />
<glyph unicode="&#x3f;" d="M 315.27,585.47C 152.43,583.29, 22.19,449.5, 24.35,286.64c 2.18-162.79, 135.96-293.050, 298.8-290.9
		c 162.84,2.2, 293.070,136.010, 290.91,298.83C 611.9,457.38, 478.1,587.65, 315.27,585.47z M 314.4,111.11l-1.63,0.040
		c-25.070,0.72-42.76,19.2-42.040,43.92c 0.69,24.27, 18.8,41.9, 43.060,41.9l 1.45-0.030c 25.78-0.75, 43.27-19.040, 42.52-44.44
		C 357.050,128.12, 339.23,111.11, 314.4,111.11z M 419.88,320.48c-5.9-8.38-18.85-18.78-35.21-31.52l-17.99-12.42
		c-9.87-7.68-15.83-14.91-18.080-22.010c-1.77-5.61-2.62-7.070-2.77-18.46l-0.020-2.89l-68.73,0 l 0.21,5.8
		c 0.83,23.92, 1.42,37.98, 11.33,49.6c 15.53,18.24, 49.81,40.31, 51.28,41.24c 4.9,3.71, 9.050,7.92, 12.12,12.41
		c 7.22,9.94, 10.41,17.77, 10.41,25.47c0,10.66-3.17,20.53-9.43,29.32c-6.030,8.49-17.44,12.78-33.99,12.78
		c-16.41,0-27.64-5.21-34.35-15.88c-6.91-10.98-10.4-22.52-10.4-34.29l0-2.94 l-70.84,0 l 0.12,3.060
		c 1.84,43.4, 17.31,74.64, 46.020,92.88c 18.040,11.6, 40.47,17.49, 66.66,17.49c 34.27,0, 63.21-8.33, 85.98-24.76
		c 23.070-16.64, 34.78-41.57, 34.78-74.080C 436.96,353.090, 431.21,336, 419.88,320.48z" data-tags="CircleQuestion" />
<glyph unicode="&#x42;" d="M 560.4,97.66c0-10.76-3.72-19.89-11.18-27.34l-33.54-34.78c-8.3-7.46-17.82-11.18-28.56-11.18
			c-10.78,0-19.89,3.72-27.34,11.18l-113.030,114.3c-8.28,6.61-12.41,15.7-12.41,27.32c0,10.76, 0.5,17.25, 9.62,26.37
			l-79.51,79.5l-35.7-36.29c-2.49-2.48-5.8-3.75-9.94-3.75c-4.16,0-7.46,1.27-9.93,3.75
			c 4.13-4.16, 6.4-6.44, 6.83-6.85c 0.42-0.44, 1.44-1.67, 3.11-3.73c 1.65-2.070, 2.68-3.54, 3.11-4.33
			c 0.41-0.85, 1.030-2.3, 1.86-4.37c 0.82-2.070, 1.44-3.94, 1.87-5.59c 0.41-1.67, 0.63-3.31, 0.63-4.97
			c0-8.29-2.92-15.33-8.71-21.11c-0.83-0.85-2.48-2.7-4.96-5.6c-2.49-2.91-4.36-4.96-5.6-6.21
			c-1.25-1.23-3.31-3.11-6.21-5.59c-2.92-2.48-5.18-4.15-6.83-4.97c-1.67-0.84-3.93-1.68-6.83-2.48
			c-2.92-0.84-5.6-1.24-8.080-1.24c-8.29,0-15.34,2.88-21.11,8.71L 31.21,305.11C 25.4,310.89, 22.5,317.95, 22.5,326.24
			c0,2.49, 0.41,5.16, 1.25,8.070c 0.81,2.89, 1.65,5.15, 2.49,6.84c 0.81,1.65, 2.48,3.92, 4.97,6.85
			c 2.47,2.87, 4.34,4.96, 5.58,6.2c 1.25,1.25, 3.3,3.1, 6.21,5.59c 2.9,2.49, 4.75,4.13, 5.6,4.96
			c 5.78,5.8, 12.83,8.7, 21.11,8.7c 1.67,0, 3.3-0.21, 4.98-0.61c 1.65-0.44, 3.51-1.060, 5.59-1.87
			c 2.060-0.83, 3.51-1.45, 4.34-1.87c 0.82-0.42, 2.27-1.45, 4.35-3.11c 2.060-1.67, 3.3-2.7, 3.72-3.11
			c 0.42-0.43, 2.69-2.7, 6.84-6.84c-2.48,2.49-3.73,5.79-3.73,9.94c0,4.14, 1.25,7.45, 3.73,9.94l 109.33,109.32
			c 2.48,2.48, 5.78,3.73, 9.93,3.73c 4.13,0, 7.45-1.25, 9.94-3.73c-4.15,4.13-6.41,6.4-6.83,6.84
			c-0.43,0.41-1.47,1.64-3.11,3.72c-1.67,2.050-2.7,3.5-3.11,4.36c-0.43,0.82-1.040,2.26-1.87,4.34
			c-0.83,2.060-1.45,3.93-1.87,5.59c-0.43,1.65-0.62,3.3-0.62,4.98c0,8.27, 2.89,15.32, 8.69,21.11
			c 0.83,0.82, 2.48,2.68, 4.97,5.6c 2.5,2.88, 4.35,4.96, 5.59,6.22c 1.25,1.24, 3.31,3.1, 6.21,5.57
			c 2.9,2.49, 5.16,4.15, 6.84,4.98c 1.66,0.81, 3.93,1.65, 6.84,2.5c 2.9,0.82, 5.59,1.23, 8.080,1.23
			c 8.27,0, 15.31-2.92, 21.12-8.71l 126.72-126.69c 5.76-5.8, 8.7-12.85, 8.7-21.13c0-2.48-0.44-5.18-1.26-8.070
			c-0.83-2.9-1.67-5.17-2.47-6.83c-0.84-1.67-2.49-3.93-4.97-6.84c-2.47-2.92-4.36-4.97-5.59-6.21
			c-1.25-1.23-3.32-3.1-6.22-5.59c-2.89-2.48-4.76-4.16-5.58-4.97c-5.81-5.81-12.85-8.71-21.12-8.71
			c-1.68,0-3.32,0.19-4.96,0.62c-1.67,0.4-3.54,1.020-5.6,1.87c-2.080,0.81-3.55,1.43-4.36,1.86
			c-0.82,0.41-2.29,1.44-4.36,3.11c-2.060,1.66-3.3,2.68-3.71,3.11c-0.43,0.42-2.71,2.68-6.85,6.84
			c 2.48-2.5, 3.75-5.8, 3.75-9.94c0-4.15-1.27-7.45-3.75-9.94l-34.42-35.49l 79.5-79.52
			c 9.12,9.12, 13.73,9.41, 24.49,9.41s 20.3-3.71, 28.58-11.17l 113.050-113.040C 556.68,117.93, 560.4,108.4, 560.4,97.66z" data-tags="Bid" />
<glyph unicode="&#x51;" d="M 211.4,210.33L 211.4,366.96 l-95.99,0 c-27.79,0-50.52-22.73-50.52-50.52l0-151.57 c0-27.78, 22.73-50.52, 50.52-50.52l 25.26,0 l0-75.78 
		l 75.78,75.78l 126.3,0 c 27.79,0, 50.53,22.73, 50.53,50.52l0,45.99 c-1.64-0.34-3.34-0.52-5.060-0.52L 211.4,210.34 z M 519.59,493.26L 292.24,493.26 
		c-27.79,0-50.52-22.74-50.52-50.52l0-202.090 l 176.82,0 l 75.78-75.78l0,75.78 l 25.27,0 c 27.77,0, 50.51,22.73, 50.51,50.52L 570.1,442.74 
		C 570.1,470.52, 547.36,493.26, 519.59,493.26z" data-tags="QuestionandAnswers" />
<glyph unicode="&#x53;" d="M 597.92,206.54c-5.34-18.69-13.35-37.38-22.71-54.75c-36.050,9.35-65.43-5.34-90.8-29.38
		c-24.030-25.38-32.040-54.75-22.7-90.8c-17.36-9.35-36.050-17.36-56.080-24.040c-18.69,33.39-53.42,54.76-88.13,54.76
		s-69.43-21.37-88.13-54.76c-20.030,6.68-38.73,14.7-56.080,24.040c 9.35,36.050, 2.67,65.42-22.7,90.8
		c-24.040,24.030-53.42,32.050-90.8,22.7c-9.35,17.36-16.030,36.050-22.71,54.76C 69.13,219.9, 91.83,253.28, 91.83,288
		c0,36.050-22.71,62.76-54.75,82.79c 6.68,18.7, 13.36,37.39, 22.71,54.75c 37.38-9.35, 66.76,5.34, 90.8,29.38
		c 25.37,25.37, 32.050,54.75, 22.7,90.8c 17.36,9.35, 36.050,17.36, 56.080,22.7c 18.7-32.050, 53.41-53.41, 88.13-53.41
		s 69.44,21.37, 88.13,53.41c 20.030-5.34, 38.72-13.35, 56.080-22.7c-9.35-36.050-1.34-65.43, 22.7-90.8
		c 25.37-24.040, 54.75-38.73, 90.8-29.38c 9.36-17.36, 17.36-36.050, 22.71-54.75C 565.87,350.76, 544.5,324.050, 544.5,288
		C 544.5,253.28, 565.87,226.57, 597.92,206.54z M 439.010,288c0,68.11-53.41,122.85-121.51,122.85c-66.76,0-121.51-54.75-121.51-122.85
		c0-66.77, 54.75-121.51, 121.51-121.51C 385.61,166.49, 439.010,221.23, 439.010,288z" data-tags="UserSettings" />
<glyph unicode="&#x45;" d="M 462.94,537.78L 216.41,537.78 c-30.13,0-54.24-24.65-54.24-54.79l0-82.17 l 54.24,0 l0,82.17 l 246.53,0 l0-383.48 L 216.41,99.51 L 216.41,154.3 l-54.24,0 l0-54.79 
	c0-30.13, 24.11-54.79, 54.24-54.79l 246.53,0 c 30.12,0, 54.77,24.66, 54.77,54.79L 517.71,482.99 C 517.71,513.12, 493.060,537.78, 462.94,537.78z
	 M 271.19,170.73l 109.57,106.83L 271.19,384.39l0-65.75 L 24.67,318.64 l0-82.16 l 246.52,0 L 271.19,170.73 z" data-tags="LogOut" />
<glyph unicode="&#x43;" d="M 502.9,496.71l-23.52,0 l0-52.26 l-83.61,0 l0,52.26 L 244.24,496.71 l0-52.26 l-83.61,0 l0,52.26 l-23.52,0 c-28.74,0-52.26-23.52-52.26-52.26l0-313.54 
		c0-28.74, 23.52-52.26, 52.26-52.26L 502.9,78.65 c 28.74,0, 52.26,23.52, 52.26,52.26L 555.16,444.46 C 555.16,473.2, 531.64,496.71, 502.9,496.71z
		 M 502.9,130.92L 137.11,130.92 L 137.11,339.94 L 502.9,339.94 L 502.9,130.92 z M 220.72,548.97l-36.58,0 l0-88.83 l 36.58,0 L 220.72,548.97 z M 455.87,548.97l-36.58,0 l0-88.83 l 36.58,0 L 455.87,548.97 z" data-tags="Calender" />
<glyph unicode="&#x50;" d="M 56.87,542.13l0-82.010 c 245.34,0, 444.24-198.91, 444.24-444.25l 82.010,0 C 583.12,306.52, 347.51,542.13, 56.87,542.13z M 56.87,378.1
		l0-82.010 c 154.76,0, 280.21-125.46, 280.21-280.22l 82,0 C 419.080,215.92, 256.92,378.1, 56.87,378.1z M 135.46,173.070
		c-43.4,0-78.59-35.2-78.59-78.6s 35.19-78.59, 78.59-78.59c 43.41,0, 78.6,35.19, 78.6,78.59S 178.87,173.070, 135.46,173.070z" data-tags="Press" />
<glyph unicode="&#x4e;" d="M 260.27,192.17l-102.73,41.080l0-34.77 l 102.73-41.090L 260.27,192.17 z M 260.27,298.83l-102.73,41.090l0-34.77 l 102.73-41.090L 260.27,298.83 z
		 M 536.55,477.14c-7.040,4.78-16.010,5.74-23.93,2.57l-195.87-78.35l-195.89,78.35c-7.92,3.17-16.87,2.2-23.93-2.57
		c-7.050-4.78-11.27-12.74-11.27-21.26l0-328.66 c0-10.5, 6.39-19.94, 16.13-23.85l 204.98-81.98c0,0, 4.2-1.35, 5-1.51
		c 1.64-0.32, 3.3-0.5, 4.99-0.5c 1.67,0, 3.33,0.18, 4.98,0.5c 0.8,0.17, 5.010,1.52, 5.010,1.52l 204.96,81.97
		c 9.75,3.91, 16.14,13.35, 16.14,23.85L 547.85,455.87 C 547.84,464.4, 543.6,472.36, 536.55,477.14z M 291.080,71.91l-164.34,65.73L 126.74,425.42 
		l 164.34-65.74L 291.080,71.91 z M 506.76,137.64l-164.33-65.73L 342.43,359.67 l 164.33,65.74L 506.76,137.64 z M 475.95,233.25l-102.72-41.080l0-34.78 l 102.72,41.090
		L 475.95,233.25 z M 475.95,339.91l-102.72-41.090l0-34.77 l 102.72,41.090L 475.95,339.91 z" data-tags="News" />
<glyph unicode="&#x4d;" d="M 563.26,98.15L 436.27,225.13c 19.15,31.46, 30.18,68.4, 30.18,107.92c0,114.81-99.48,214.29-214.32,214.29
			c-114.8,0-207.89-93.080-207.89-207.9c0-114.82, 99.49-214.29, 214.29-214.29c 38.17,0, 73.94,10.33, 104.67,28.29l 127.68-127.68
			c 12.5-12.51, 32.74-12.51, 45.23,0l 31.68,31.65C 580.28,69.92, 575.75,85.66, 563.26,98.15z M 108.22,339.45
			c0,79.5, 64.44,143.94, 143.91,143.94c 79.52,0, 150.34-70.83, 150.34-150.33c0-79.49-64.43-143.93-143.93-143.93
			C 179.050,189.12, 108.22,259.94, 108.22,339.45z" data-tags="Magnifier" />
<glyph unicode="&#x21;" d="M 583.7,119.24L 337.22,551.83c-3.41,5.96-9.8,9.65-16.73,9.65c-6.93,0-13.31-3.69-16.71-9.65L 57.3,119.24
			c-3.35-5.87-3.3-13.030, 0.15-18.83C 60.89,94.6, 67.2,91.030, 74,91.030l 492.99,0 c 6.8,0, 13.11,3.57, 16.55,9.38
			C 586.98,106.21, 587.030,113.37, 583.7,119.24z M 350.94,146.38l-60.89,0 l0,55.34 l 60.89,0 L 350.94,146.38 z M 350.94,243.24l-60.89,0 L 290.050,409.29 l 60.89,0 
			L 350.94,243.24 z" data-tags="Attention" />
<glyph unicode="&#x2794;" d="M 429.29,394.81L 159.24,394.81L 159.24,456.18L 36.5,351.85L 159.24,253.64L 159.24,308.88L 429.29,308.88 	zM 606.15,191.29L 483.41,295.63L 483.41,234.26L 207.23,234.26L 207.23,148.32L 483.41,148.32L 483.41,93.1L 606.15,191.29 	z" data-tags="BankTransfer" />
<glyph unicode="&#x68;" d="M 561.3,295.4L 340.34,516.55c-11.28,11.72-29.77,11.72-41.060,0L 78.33,295.4c-11.3-11.72-7.090-21.3, 9.37-21.3l 46.050,0 l0-169.84 
			c0-12.27, 0.53-22.25, 22.71-22.25L 263.7,82.010 L 263.7,252.35 l 112.22,0 L 375.92,82 l 112.6,0 c 16.9,0, 17.36,9.96, 17.36,22.25L 505.88,274.090 l 46.040,0 
			C 568.36,274.090, 572.59,283.68, 561.3,295.4z" data-tags="HomeBuying" />
<glyph unicode="&#x24;" d="M 622.28,298.57c-1.27,3.93-5,6.42-11.080,7.39l-0.36,0.060l-22.7-0.030
		C 583.74,434.67, 483.15,540.19, 357.020,553l0,0c-0.010,0-0.010,0-0.020,0c-8.49,0.86-17.090,1.3-25.78,1.3
		c-80.040,0-154.13-36.33-203.16-99.55c-0.77-0.92-7.37-9.23-5.75-18.77c 0.93-5.49, 4.27-10.010, 10.24-13.61l 40.35-20.84
		c 1.12-0.74, 3.88-2.23, 7.98-2.23c 6.94,0, 13.98,4.11, 20.93,12.23c 31.78,37.11, 78.95,58.39, 129.41,58.39
		c 2.56,0, 5.11-0.070, 7.64-0.19c 0.89-0.040, 1.77-0.1, 2.66-0.15c 1.63-0.1, 3.26-0.22, 4.89-0.37
		c 1.040-0.090, 2.080-0.19, 3.12-0.3c 1.57-0.17, 3.13-0.38, 4.71-0.59c 0.93-0.13, 1.87-0.23, 2.79-0.38l0,0
		c 79.69-12.2, 142.54-79.88, 146.67-162.080l-28.51-0.050c-6.98-0.63-9.61-3.95-10.57-6.62c-2.69-7.38, 5.17-16.020, 7.64-18.49
		l 59.57-59.57c 3.16-3.16, 7.37-4.92, 11.86-4.92c 4.49,0, 8.7,1.75, 11.91,4.97l 58.2,59.71
		C 617.29,284.38, 624.53,291.62, 622.28,298.57zM 519.48,159.9l-40.34,20.84c-1.12,0.74-3.88,2.23-7.97,2.23c-6.95,0-13.99-4.11-20.94-12.22
		c-27.29-31.88-65.95-52.030-108.28-57.1l0,0c-3.36-0.4-6.75-0.71-10.16-0.93c-0.15-0.010-0.29-0.030-0.45-0.040
		c-3.5-0.21-7.010-0.33-10.54-0.33c-91.53,0-167.9,73.15-172.47,164.050l 28.52,0.050c 6.99,0.63, 9.6,3.96, 10.57,6.62
		c 2.68,7.38-5.17,16.020-7.65,18.49l-59.57,59.57c-3.17,3.16-7.38,4.91-11.86,4.91c-4.49,0-8.71-1.75-11.91-4.96
		l-58.22-59.72c-3.48-3.48-10.72-10.73-8.47-17.68c 1.27-3.93, 5-6.42, 11.080-7.38l 0.37-0.060l 22.69,0.030
		c 4.69-137.35, 118.97-248.32, 256.9-248.32c 80.040,0, 154.13,36.33, 203.17,99.55c 0.75,0.92, 7.35,9.23, 5.74,18.78
		C 528.8,151.77, 525.46,156.29, 519.48,159.9zM 225.79,255.070l 23.55,0 c 11.39-56.59, 48.99-86.22, 96.46-86.22c 27.34,0, 50.89,12.54, 69.12,34.95l-30.76,28.86
		c-9.87-13.29-20.51-20.51-34.94-20.51c-21.27,0-36.080,15.19-42.92,42.92l 65.32,0 l0,28.48 L 302.5,283.55 c-0.38,3.42-0.38,7.22-0.38,11.020
		c0,2.66,0,5.32,0,7.98l 84.69,0 l0,28.11 l-81.27,0 c 6.070,28.86, 20.88,45.19, 42.53,45.19c 13.29,0, 23.16-6.84, 32.67-16.33l 31.13,30
		c-16.32,18.99-39.11,29.62-61.9,29.62c-50.5,0-88.86-32.29-100.63-88.87l-23.55-1.9l0-25.83 l 20.51,0 
		c-0.38-3.42-0.38-6.46-0.38-9.88c0-3.41,0-6.45, 0.38-9.87l-20.51-1.52L 225.79,255.070 z" data-tags="MontlyPayments" />
<glyph unicode="&#x2610;" d="M 279.1,148.1c-8.64,0-16.81,4.030-22.060,10.96l-70.95,93.7c-9.24,12.19-6.83,29.54, 5.35,38.76
			c 12.22,9.24, 29.56,6.83, 38.77-5.35l 46.67-61.62l 117.35,188.44c 8.1,12.96, 25.15,16.92, 38.13,8.86
			c 12.98-8.080, 16.94-25.14, 8.86-38.12L 302.6,161.13c-4.81-7.74-13.13-12.59-22.23-13.020C 279.94,148.1, 279.51,148.1, 279.1,148.1M 509.68,477.28l0-378.010 L 131.67,99.27 L 131.67,477.28 L 509.68,477.28  M 521.25,540.67L 120.1,540.67 c-28.62,0-51.82-23.19-51.82-51.82l0-401.14 
			c0-28.62, 23.2-51.82, 51.82-51.82l 401.14,0 c 28.62,0, 51.82,23.19, 51.82,51.82L 573.060,488.85 C 573.070,517.47, 549.87,540.67, 521.25,540.67
			L 521.25,540.67z" data-tags="Control" />
<glyph unicode="&#x20ac;" d="M 509.25,548.74L 129.29,548.74 c-38.67,0-70.030-31.36-70.030-70.030l0-379.95 c0-38.67, 31.36-70.040, 70.030-70.040l 379.96,0 
		c 38.66,0, 70.010,31.37, 70.010,70.040L 579.26,478.71 C 579.26,517.38, 547.91,548.74, 509.25,548.74z M 338.61,94.89
		c-72.96,0-130.74,45.53-148.25,132.5l-36.2,0 l0,40.26 l 31.53,2.34c-0.59,5.27-0.59,9.91-0.59,15.16c0,5.26,0,9.92, 0.59,15.18
		l-31.53,0 l0,39.7 l 36.2,2.91c 18.080,86.97, 77.030,136.59, 154.67,136.59c 35.020,0, 70.050-16.35, 95.15-45.53l-47.88-46.12
		c-14.57,14.59-29.74,25.11-50.18,25.11c-33.27,0-56.030-25.11-65.39-69.46l 124.92,0 l0-43.2 L 271.5,300.33 c0-4.080,0-8.17,0-12.25
		c0-5.86,0-11.69, 0.58-16.92l 106.24,0 l0-43.79 L 277.92,227.37 c 10.49-42.6, 33.27-65.97, 65.96-65.97c 22.19,0, 38.5,11.080, 53.7,31.52l 47.29-44.37
		C 416.84,114.15, 380.64,94.89, 338.61,94.89z" data-tags="BankAccount" />
<glyph unicode="&#x78;" d="M 408.32,283.26l 153.030-153.020l-86.43-86.42L 321.91,196.84L 168.89,43.82l-86.41,86.42l 153.010,153.020L 82.48,436.24
		l 86.41,86.46l 153.010-153.010L 474.9,522.68l 86.43-86.41L 408.32,283.26z" data-tags="Close" />
<glyph unicode="&#x49;" d="M 315.27,585.47C 152.43,583.29, 22.19,449.5, 24.35,286.64c 2.18-162.79, 135.96-293.060, 298.8-290.91
	C 486-2.060, 616.22,131.75, 614.060,294.57C 611.89,457.38, 478.11,587.65, 315.27,585.47z M 283.83,451.32
	c0,3.56, 0.88,6.24, 2.68,8.040c 1.79,1.78, 4.46,2.68, 8.050,2.68l 64.28,0 c 3.55,0, 6.24-0.9, 8.040-2.68
	c 1.79-1.8, 2.69-4.47, 2.69-8.040l0-64.29 c0-3.57-0.9-6.25-2.69-8.030c-1.8-1.81-4.48-2.69-8.040-2.69l-64.28,0 
	c-3.58,0-6.26,0.88-8.050,2.69c-1.8,1.78-2.68,4.45-2.68,8.030L 283.83,451.32 z M 412.4,129.88c0-3.57-0.9-6.25-2.68-8.030
	c-1.8-1.8-4.48-2.68-8.040-2.68l-150,0 c-3.58,0-6.26,0.88-8.040,2.68c-1.8,1.78-2.68,4.45-2.68,8.030l0,21.45 
	c0,3.55, 0.88,6.23, 2.68,8.030c 1.78,1.78, 4.45,2.68, 8.040,2.68l 32.14,0 L 283.82,290.61 l-32.14,0 c-3.58,0-6.26,0.88-8.040,2.68
	c-1.8,1.78-2.68,4.45-2.68,8.040l0,21.44 c0,3.55, 0.88,6.23, 2.68,8.030c 1.78,1.78, 4.45,2.68, 8.040,2.68l 107.14,0 
	c 3.55,0, 6.24-0.9, 8.040-2.68c 1.79-1.8, 2.69-4.47, 2.69-8.030l0-160.73 l 32.14,0 c 3.55,0, 6.24-0.9, 8.040-2.68
	c 1.78-1.8, 2.68-4.47, 2.68-8.030L 412.41,129.88 z" data-tags="CircleInfo" />
<glyph unicode="&#x260f;" d="M 414.73,243.89c-27.56-27.56-27.56-55.11-55.12-55.11s-55.12,27.55-82.67,55.11c-27.55,27.57-55.11,55.12-55.11,82.67
	s 27.56,27.55, 55.11,55.11c 27.55,27.55-55.11,110.22-82.67,110.22c-27.56,0-82.67-82.67-82.67-82.67
	c0-55.11, 56.62-166.85, 110.22-220.44c 53.6-53.6, 165.34-110.21, 220.44-110.21c0,0, 82.68,55.1, 82.68,82.67
	C 524.94,188.79, 442.29,271.46, 414.73,243.89z" data-tags="Telephone" />
<glyph unicode="&#x58;" d="M 320.9,582.010C 159,582.010, 27.77,450.76, 27.77,288.88c0-161.9, 131.23-293.13, 293.12-293.13
		c 161.88,0, 293.12,131.23, 293.12,293.13C 614.020,450.76, 482.77,582.010, 320.9,582.010z M 381.22,288.88l 106.8-106.78l-60.31-60.31
		L 320.92,228.57l-106.81-106.8l-60.3,60.31l 106.78,106.8L 153.81,395.65l 60.3,60.34L 320.9,349.2l 106.78,106.78l 60.32-60.31
		L 381.22,288.88z" data-tags="CircleX" />
<glyph unicode="&#x2b;" d="M 319.68,543.42c-140.59,0-255.13-114.53-255.13-255.090c0-141.18, 114.54-255.13, 255.13-255.13
		c 141.12,0, 255.16,113.95, 255.16,255.13C 574.84,428.88, 460.8,543.42, 319.68,543.42z M 463.010,236.61l-91.62,0 l0-91.6 L 268.040,145.010 l0,91.6 l-91.2,0 
		L 176.84,339.95 l 91.2,0 l0,91.23 l 103.34,0 l0-91.22 l 91.63,0 L 463.010,236.61L 463.010,236.61z" data-tags="MedicalExpenses" />
<glyph unicode="&#x4f;" d="M 233.55,347.76L 342.21,456.36L 282.37,456.36L 203.65,377.67L 203.66,317.82L 280.010,241.42L 309.93,271.37 	zM 351.97,454.080L 322.060,424.17L 398.44,347.73L 289.77,239.15L 349.63,239.15L 428.36,317.77L 428.36,377.65 	zM 533.28,375.17c 11.74,20.98, 7.29,37.61-13.38,49.91
	c-20.66,12.29-31.15,30.47-31.46,54.5c-0.31,24.040-12.5,36.23-36.54,36.54c-24.040,0.32-42.21,10.81-54.51,31.48
	c-12.3,20.65-28.93,25.11-49.9,13.36c-10.45-5.84-20.9-8.76-31.33-8.79c-10.41,0.050-20.82,2.97-31.22,8.79
	c-7.94,4.45-15.25,6.55-21.95,6.36c-11.17-0.18-20.62-6.74-28.35-19.72c-12.3-20.67-30.47-31.16-54.51-31.48
	c-24.040-0.31-36.22-12.5-36.54-36.54c-0.32-24.030-10.81-42.21-31.47-54.5c-20.66-12.3-25.12-28.94-13.37-49.91
	c 11.74-21, 11.74-41.97,0-62.95c-11.75-20.98-7.29-37.61, 13.37-49.91c 20.66-12.29, 31.15-30.46, 31.47-54.51
	c 0.32-24.030, 12.5-36.22, 36.54-36.52c 4.37-0.060, 8.48-0.58, 12.46-1.3l-37.93-132.67l 24.12,8.060l 36.49,14.45l 23.34-31.55
	l 16.21-19.6l 34.25,119.79c 9.030,4.39, 18.070,6.73, 27.1,6.77c 10.12-0.020, 20.26-2.83, 30.38-8.34l 32.99-118.12l 16.31,19.5
	l 23.55,31.4l 36.39-14.67l 24.080-8.22L 442.5,170.55c 3.030,0.41, 6.15,0.68, 9.39,0.72c 24.040,0.3, 36.23,12.49, 36.54,36.52
	c 0.31,24.050, 10.8,42.23, 31.46,54.51c 20.66,12.3, 25.12,28.94, 13.38,49.91S 521.54,354.17, 533.28,375.17z M 316,191.93
	c-83.81,0-151.75,67.95-151.75,151.78c0,83.8, 67.94,151.75, 151.75,151.75c 83.82,0, 151.75-67.94, 151.75-151.75
	C 467.75,259.88, 399.82,191.93, 316,191.93z" data-tags="QualitySign" />
<glyph unicode="&#x54;" d="M 538.3,108.25L 538.3,406.56 L 99.3,406.56 l0-298.31 L 538.3,108.25 z M 158.3,355.63l 320.95,0 l0-182.68 L 158.3,172.95 L 158.3,355.63 zM 158.35,74.48L 479.26,74.48L 479.26,31.59L 158.35,31.59zM 456.55,553.23L 367.99,464.66L 279.42,553.23L 230.54,553.23L 367.65,416.12L 367.99,416.46L 368.33,416.12L 505.44,553.23 	
		z" data-tags="TV" />
<glyph unicode="&#x41;" d="M 116.040,344.58l-3.020,0 c-18.79,0-34.31-13.45-37.39-31.080L 74.98,313.5 l0-6.38 l0-41.18 l0-77.53 l0-41.18 l0-6.38 l 0.65,0 
		c 3.090-17.64, 18.6-31.080, 37.39-31.080l 3.020,0 l 37.86,0 l0,31.080 l0,4.6 l0,44.75 l0,73.97 L 153.9,308.9 l0,4.6 l0,31.080 L 116.040,344.58 zM 565.010,313.5c-3.090,17.64-18.6,31.080-37.39,31.080L 524.6,344.58 l-37.86,0 l0-31.080 l0-4.6 l0-44.75 l0-73.97 l0-44.75 l0-4.6 l0-31.080 l 37.86,0 l 3.020,0 
		c 18.79,0, 34.31,13.45, 37.39,31.080l 0.65,0 l0,6.38 L 565.66,188.4 l0,77.53 l0,41.18 L 565.66,313.5 L 565.010,313.5 zM 434.86,469.83L 205.78,469.83 c-11.93,0-21.59-10.53-21.59-23.53l0-136.050 l 272.26,0 L 456.45,446.3 C 456.46,459.3, 446.79,469.83, 434.86,469.83zM 184.19,265.73L 184.19,170.65L 184.19,157.52L 456.46,157.52L 456.46,170.65L 456.46,265.73 	z" data-tags="Armchair" />
<glyph unicode="&#x57;" d="M 376.53,259.63c-11.050,22.13-33.84,37.35-60.26,37.35c-37.23,0-67.38-30.18-67.38-67.44c0-37.2, 30.14-67.41, 67.38-67.41
		c 26.42,0, 49.21,15.24, 60.26,37.37c-3.72,1.26-6.44,4.76-6.44,8.93L 370.090,250.7 C 370.080,254.87, 372.8,258.37, 376.53,259.63zM 165.55,387.17l0-284.040 c0-23.030, 18.74-41.75, 41.76-41.75l 218.62,0 c 23.030,0, 41.77,18.72, 41.77,41.75L 467.7,387.17 L 165.55,387.17 z
		 M 316.61,133.94c-52.8,0-95.61,42.79-95.61,95.6s 42.81,95.64, 95.61,95.64c 52.82,0, 95.65-42.82, 95.65-95.64
		S 369.42,133.94, 316.61,133.94zM 425.93,505.7L 207.31,505.7 c-23.020,0-41.76-18.74-41.76-41.77l0-42.74 L 467.7,421.19 l0,42.74 C 467.7,486.96, 448.96,505.7, 425.93,505.7z
	 M 312.71,436.22L 209.070,436.22 l0,52.1 l 103.63,0 L 312.7,436.22 z M 401.72,439.74c-12.29,0-22.27,9.98-22.27,22.27c0,12.29, 9.98,22.27, 22.27,22.27
	c 12.32,0, 22.27-9.98, 22.27-22.27C 424,449.71, 414.040,439.74, 401.72,439.74z" data-tags="Washer" />
<glyph unicode="&#x2e;" d="M 110.292,290.606l0-0.015 l 142.839,0 L 253.13,359.711 l-146.204,0.026c-7.443,0-13.492-6.044-13.492-13.492l0-42.137 c0-7.443, 6.044-13.492, 13.492-13.492
	l 3.365,0 L 110.292,290.606 zM 110.292,268.929l0-4 l0-145.554 l0-0.015 c0-13.806, 11.159-24.939, 24.965-24.939l 117.884,0 l0,0.015 L 253.141,264.955 l0,3.974 L 110.292,268.929 zM 421.006,359.737L 274.787,359.737 l0-69.12 l 142.839,0 l 0.010-0.010l 3.37,0 c 7.437,0, 13.476,6.044, 13.476,13.492l0,42.137 
	C 434.477,353.693, 428.439,359.737, 421.006,359.737zM 417.636,268.929L 274.787,268.929 l0-4 L 274.787,94.4 l 117.884,0 c 13.791,0, 24.939,11.159, 24.939,24.939l 0.026,145.585l0,0L 417.636,268.929 zM 387.535,455.737c-8.542,18.018-26.963,29.631-46.901,29.631c-7.721,0-15.215-1.677-22.24-5.032
	c-16.883-8.021-40.867-42.070-54.441-62.947c-13.574,20.883-37.548,54.926-54.441,62.947c-7.004,3.339-14.508,5.032-22.24,5.032
	c-19.933,0-38.348-11.623-46.901-29.631c-12.299-25.843-1.254-56.852, 24.599-69.12c 7.479-3.556, 19.055-5.213, 36.423-5.213
	c 25.703,0, 55.525,3.773, 62.539,4.707c 7.004-0.934, 36.841-4.707, 62.539-4.707c 17.383,0, 28.929,1.662, 36.413,5.213
	C 388.748,398.901, 399.804,429.889, 387.535,455.737z M 201.414,403.076c-18.56,0-25.135,2.183-27.123,3.112c-15.050,7.169-21.471,25.208-14.333,40.258
	c 4.986,10.493, 15.721,17.265, 27.319,17.265c 4.49,0, 8.841-0.991, 12.934-2.942c 9.935-4.707, 30.054-31.52, 45.435-54.994
	C 233.409,404.485, 216.454,403.076, 201.414,403.076z M 353.621,406.163c-1.992-0.924-8.568-3.112-27.128-3.112c-15.019,0-31.995,1.409-44.222,2.699
	c 15.355,23.474, 35.463,50.276, 45.414,54.994c 4.072,1.951, 8.454,2.942, 12.945,2.942c 11.597,0, 22.343-6.777, 27.334-17.254
	C 375.123,431.381, 368.671,413.337, 353.621,406.163z" horiz-adv-x="526.452" data-tags="Present" />
<glyph unicode="&#x20;" horiz-adv-x="320" />
</font>
</defs>
</svg>
